<svg id="svg2" xmlns="http://www.w3.org/2000/svg" viewBox="0 0 523.98 142.21"><defs><style>.cls-1{fill:#326ce5;}.cls-2{fill:#fff;stroke:#fff;stroke-width:0.25px;}</style></defs><title>logo</title><g id="layer1"><g id="g3052"><path id="path3055" class="cls-1" d="M82.77,10A9.81,9.81,0,0,0,79,11l-51,24.35a9.68,9.68,0,0,0-5.27,6.56L10.24,96.55A9.6,9.6,0,0,0,11.57,104q0.26,0.4.55,0.77l35.27,43.85A9.77,9.77,0,0,0,55,152.21h56.56a9.77,9.77,0,0,0,7.62-3.63l35.25-43.86a9.6,9.6,0,0,0,1.88-8.18L143.73,41.85a9.68,9.68,0,0,0-5.27-6.56L87.5,11A9.81,9.81,0,0,0,82.77,10Z" transform="translate(-10 -10)"/><path id="path3059" class="cls-2" d="M83.28,28.62a3.23,3.23,0,0,0-3,3.39s0,0.06,0,.08c0,0.25,0,.56,0,0.78a25.44,25.44,0,0,0,.42,2.9A28.49,28.49,0,0,1,81,41.31a3.33,3.33,0,0,1-1,1.58l-0.07,1.29a39.69,39.69,0,0,0-5.51.85A39.23,39.23,0,0,0,54.48,56.41l-1.1-.78a2.41,2.41,0,0,1-1.81-.18,28.48,28.48,0,0,1-4.11-3.71,25.41,25.41,0,0,0-2-2.13c-0.19-.16-0.47-0.38-0.68-0.54a3.63,3.63,0,0,0-2.12-.8,2.94,2.94,0,0,0-2.43,1.08,3.23,3.23,0,0,0,.75,4.5l0,0c0.2,0.16.45,0.37,0.63,0.51a25.42,25.42,0,0,0,2.53,1.48A28.47,28.47,0,0,1,48.71,59a3.39,3.39,0,0,1,.61,1.76l1,0.87a39.46,39.46,0,0,0-6.22,27.51l-1.28.37a4.23,4.23,0,0,1-1.31,1.32,28.48,28.48,0,0,1-5.47.9,25.52,25.52,0,0,0-2.93.23l-0.81.19H32.21a3.06,3.06,0,1,0,1.36,5.94h0l0.06,0L34.46,98a25.49,25.49,0,0,0,2.74-1,28.51,28.51,0,0,1,5.32-1.56,3.37,3.37,0,0,1,1.75.62l1.33-.23a39.69,39.69,0,0,0,17.59,22L62.63,119a3,3,0,0,1,.27,1.72,29.8,29.8,0,0,1-2.76,5,25.55,25.55,0,0,0-1.64,2.44c-0.12.23-.27,0.58-0.39,0.82a3.06,3.06,0,1,0,5.51,2.61h0c0.12-.24.28-0.55,0.38-0.78a25.45,25.45,0,0,0,.88-2.8c0.81-2,1.25-4.15,2.36-5.48a2.47,2.47,0,0,1,1.31-.64l0.69-1.25a39.47,39.47,0,0,0,28.15.07L98,121.88a2.41,2.41,0,0,1,1.56.94,28.46,28.46,0,0,1,2.09,5.13,25.51,25.51,0,0,0,.89,2.8c0.1,0.23.26,0.54,0.38,0.78a3.06,3.06,0,1,0,5.51-2.61c-0.12-.24-0.28-0.59-0.4-0.82a25.43,25.43,0,0,0-1.64-2.43,28.5,28.5,0,0,1-2.7-4.84A2.39,2.39,0,0,1,104,119a10.48,10.48,0,0,1-.51-1.23A39.69,39.69,0,0,0,121,95.69l1.3,0.23a2.41,2.41,0,0,1,1.71-.63,28.51,28.51,0,0,1,5.32,1.56,25.49,25.49,0,0,0,2.74,1.06c0.22,0.06.54,0.11,0.79,0.17l0.06,0h0a3.06,3.06,0,1,0,1.36-5.94c-0.26-.06-0.63-0.16-0.89-0.21a25.52,25.52,0,0,0-2.93-.23,28.47,28.47,0,0,1-5.47-.9,3.42,3.42,0,0,1-1.32-1.32l-1.23-.36a39.62,39.62,0,0,0-6.35-27.45l1.08-1a2.41,2.41,0,0,1,.57-1.73,28.47,28.47,0,0,1,4.54-3.19,25.5,25.5,0,0,0,2.53-1.48c0.2-.15.46-0.37,0.67-0.54a3.07,3.07,0,1,0-3.8-4.77c-0.21.16-.49,0.38-0.68,0.54a25.52,25.52,0,0,0-2,2.13A28.56,28.56,0,0,1,115,55.4a3.4,3.4,0,0,1-1.85.2l-1.16.83A40,40,0,0,0,86.64,44.2c0-.41-0.06-1.14-0.07-1.36a2.41,2.41,0,0,1-1-1.52,28.54,28.54,0,0,1,.35-5.53,25.44,25.44,0,0,0,.42-2.9c0-.25,0-0.6,0-0.87a3.23,3.23,0,0,0-3-3.39h0ZM79.46,52.28l-0.91,16-0.07,0a2.69,2.69,0,0,1-4.27,2.06h0l-13.12-9.3a31.42,31.42,0,0,1,15.13-8.24A32.14,32.14,0,0,1,79.46,52.28Zm7.64,0a31.68,31.68,0,0,1,18.27,8.81l-13,9.24,0,0A2.69,2.69,0,0,1,88,68.26h0ZM56.32,67.06l12,10.71v0.07a2.69,2.69,0,0,1-1.06,4.62v0.05L51.86,86.94A31.41,31.41,0,0,1,56.32,67.06Zm53.83,0a32,32,0,0,1,4.59,19.82L99.32,82.44V82.38a2.69,2.69,0,0,1-1.06-4.62v0l11.91-10.66h0ZM80.82,78.6h4.91l3,3.81-1.09,4.76-4.41,2.12-4.42-2.12L77.77,82.4Zm15.73,13a2.68,2.68,0,0,1,.62,0l0,0,15.88,2.68a31.45,31.45,0,0,1-12.71,16L94.2,95.42l0,0a2.7,2.7,0,0,1,2.33-3.75h0Zm-26.67.07a2.69,2.69,0,0,1,2.43,3.75l0,0.06-6.1,14.74A31.58,31.58,0,0,1,53.58,94.39l15.74-2.67,0,0a2.72,2.72,0,0,1,.53,0h0Zm13.3,6.46a2.71,2.71,0,0,1,2.46,1.41H85.7l7.76,14a32.17,32.17,0,0,1-3.1.87,31.54,31.54,0,0,1-17.21-.89l7.74-14h0A2.69,2.69,0,0,1,83.18,98.17Z" transform="translate(-10 -10)"/></g></g><path d="M198.52,83.95l2.95-3.22q1.52-1.68,2.95-3.32l2.69-3.12q1.26-1.48,2.17-2.58h11.48q-3.44,3.95-6.71,7.53t-7.16,7.4a44.54,44.54,0,0,1,4,4.19q2.07,2.43,4,5t3.56,5.19q1.62,2.6,2.72,4.74h-11.1q-1-1.69-2.36-3.74T204.92,98q-1.49-2-3.14-3.93a26.37,26.37,0,0,0-3.27-3.18v14.94h-9.66V57.06l9.66-1.56V83.95Z" transform="translate(-10 -10)"/><path d="M254.83,104.63a53.66,53.66,0,0,1-6.35,1.33,52.21,52.21,0,0,1-8.16.62,19.39,19.39,0,0,1-7.23-1.17,11,11,0,0,1-4.57-3.27,12.75,12.75,0,0,1-2.4-5,27,27,0,0,1-.71-6.42v-19h9.66V89.53q0,4.67,1.23,6.74t4.6,2.07q1,0,2.2-.1t2.07-.23V71.71h9.66v32.92Z" transform="translate(-10 -10)"/><path d="M295.59,88.75a21.55,21.55,0,0,1-1.2,7.39,15.61,15.61,0,0,1-3.47,5.64,15.24,15.24,0,0,1-5.57,3.6,20.93,20.93,0,0,1-7.52,1.26q-1.75,0-3.66-.16t-3.76-.42q-1.85-.26-3.53-0.62t-3-.75V57.06l9.66-1.56v17a18.12,18.12,0,0,1,3.37-1.1,17.31,17.31,0,0,1,3.76-.39,15.39,15.39,0,0,1,6.42,1.26,12.58,12.58,0,0,1,4.67,3.6,16.16,16.16,0,0,1,2.85,5.61A25.56,25.56,0,0,1,295.59,88.75Zm-9.85-.26q0-9.33-6.87-9.33a11.4,11.4,0,0,0-2.95.39,8.39,8.39,0,0,0-2.37,1V98.08q0.71,0.13,1.81.23t2.4,0.1a6.94,6.94,0,0,0,6-2.72A11.83,11.83,0,0,0,285.74,88.49Z" transform="translate(-10 -10)"/><path d="M301.42,89a20.83,20.83,0,0,1,1.39-7.94,17,17,0,0,1,3.66-5.67A15.22,15.22,0,0,1,311.69,72a16.33,16.33,0,0,1,6.06-1.17q7.26,0,11.47,4.44t4.21,13.06q0,0.84-.06,1.85t-0.13,1.78h-21.9a6.41,6.41,0,0,0,2.79,4.73,11.2,11.2,0,0,0,6.61,1.75,27.9,27.9,0,0,0,5.22-.49,19.65,19.65,0,0,0,4.18-1.2l1.3,7.84a13.37,13.37,0,0,1-2.07.78,27.23,27.23,0,0,1-2.88.68q-1.59.29-3.4,0.49a34.08,34.08,0,0,1-3.63.19,21.48,21.48,0,0,1-8-1.36,15.58,15.58,0,0,1-5.64-3.73,14.78,14.78,0,0,1-3.3-5.61A22.2,22.2,0,0,1,301.42,89Zm22.68-3.69a10,10,0,0,0-.42-2.4,6,6,0,0,0-1.1-2.07,5.88,5.88,0,0,0-1.88-1.49,6.13,6.13,0,0,0-2.82-.58,6.49,6.49,0,0,0-2.79.55,5.77,5.77,0,0,0-1.94,1.46,6.53,6.53,0,0,0-1.2,2.11,13.8,13.8,0,0,0-.62,2.43H324.1Z" transform="translate(-10 -10)"/><path d="M361.42,80.26q-1.3-.32-3-0.68a18.87,18.87,0,0,0-3.76-.36,17.53,17.53,0,0,0-2.17.16,12.8,12.8,0,0,0-1.91.36v26h-9.66V73.52A58.13,58.13,0,0,1,347,71.81a35.3,35.3,0,0,1,7.87-.81q0.78,0,1.88.1t2.2,0.26q1.1,0.16,2.2.39a10.45,10.45,0,0,1,1.88.55Z" transform="translate(-10 -10)"/><path d="M368.23,72.88a54,54,0,0,1,6.35-1.33,52.25,52.25,0,0,1,8.17-.62A19.9,19.9,0,0,1,390,72.07a10.87,10.87,0,0,1,4.57,3.21,12.52,12.52,0,0,1,2.4,4.92,26.24,26.24,0,0,1,.71,6.35v19.25H388V87.71q0-4.67-1.23-6.61t-4.6-1.94q-1,0-2.2.1t-2.07.23v26.31h-9.66V72.88Z" transform="translate(-10 -10)"/><path d="M404.77,89a20.84,20.84,0,0,1,1.39-7.94,17,17,0,0,1,3.66-5.67A15.23,15.23,0,0,1,415,72a16.34,16.34,0,0,1,6.06-1.17q7.26,0,11.47,4.44t4.21,13.06q0,0.84-.07,1.85t-0.13,1.78h-21.9a6.41,6.41,0,0,0,2.79,4.73,11.2,11.2,0,0,0,6.61,1.75,27.91,27.91,0,0,0,5.22-.49,19.66,19.66,0,0,0,4.18-1.2l1.3,7.84a13.38,13.38,0,0,1-2.07.78,27.22,27.22,0,0,1-2.88.68q-1.59.29-3.4,0.49a34.08,34.08,0,0,1-3.63.19,21.48,21.48,0,0,1-8-1.36,15.58,15.58,0,0,1-5.64-3.73A14.78,14.78,0,0,1,405.84,96,22.21,22.21,0,0,1,404.77,89Zm22.68-3.69a10,10,0,0,0-.42-2.4,6,6,0,0,0-1.1-2.07,5.88,5.88,0,0,0-1.88-1.49,6.13,6.13,0,0,0-2.82-.58,6.48,6.48,0,0,0-2.79.55,5.77,5.77,0,0,0-1.94,1.46,6.52,6.52,0,0,0-1.2,2.11,13.75,13.75,0,0,0-.62,2.43h12.77Z" transform="translate(-10 -10)"/><path d="M443.91,63.22l9.66-1.56v10h11.6v8h-11.6v12a9.54,9.54,0,0,0,1.07,4.86q1.07,1.81,4.31,1.81a18.46,18.46,0,0,0,3.21-.29,16.5,16.5,0,0,0,3-.81l1.36,7.52a27.34,27.34,0,0,1-3.89,1.23,22.68,22.68,0,0,1-5.25.52,17.28,17.28,0,0,1-6.54-1.07,10.26,10.26,0,0,1-4.15-3,11.08,11.08,0,0,1-2.17-4.63,27.33,27.33,0,0,1-.62-6V63.22Z" transform="translate(-10 -10)"/><path d="M470.29,89a20.84,20.84,0,0,1,1.39-7.94,17,17,0,0,1,3.66-5.67A15.23,15.23,0,0,1,480.56,72a16.34,16.34,0,0,1,6.06-1.17q7.26,0,11.47,4.44T502.3,88.3q0,0.84-.07,1.85t-0.13,1.78H480.2A6.41,6.41,0,0,0,483,96.66a11.2,11.2,0,0,0,6.61,1.75,27.91,27.91,0,0,0,5.22-.49,19.66,19.66,0,0,0,4.18-1.2l1.3,7.84a13.38,13.38,0,0,1-2.07.78,27.22,27.22,0,0,1-2.88.68q-1.59.29-3.4,0.49a34.08,34.08,0,0,1-3.63.19,21.48,21.48,0,0,1-8-1.36,15.58,15.58,0,0,1-5.64-3.73A14.78,14.78,0,0,1,471.35,96,22.21,22.21,0,0,1,470.29,89ZM493,85.32a10,10,0,0,0-.42-2.4,6,6,0,0,0-1.1-2.07,5.88,5.88,0,0,0-1.88-1.49,6.13,6.13,0,0,0-2.82-.58,6.48,6.48,0,0,0-2.79.55A5.77,5.77,0,0,0,482,80.78a6.52,6.52,0,0,0-1.2,2.11,13.75,13.75,0,0,0-.62,2.43H493Z" transform="translate(-10 -10)"/><path d="M519.53,98.86a9.63,9.63,0,0,0,3.76-.52,2,2,0,0,0,1.1-2,2.46,2.46,0,0,0-1.43-2,27.15,27.15,0,0,0-4.34-2,44.1,44.1,0,0,1-4.12-1.75,12.09,12.09,0,0,1-3.14-2.17,8.77,8.77,0,0,1-2-3,11.14,11.14,0,0,1-.71-4.21,9.11,9.11,0,0,1,3.56-7.58q3.56-2.79,9.78-2.79a31.44,31.44,0,0,1,6,.55,27.84,27.84,0,0,1,4.54,1.2l-1.68,7.52a35.56,35.56,0,0,0-3.66-1,19.94,19.94,0,0,0-4.44-.45q-4.54,0-4.54,2.53a2.61,2.61,0,0,0,.19,1,2.21,2.21,0,0,0,.78.87,10.91,10.91,0,0,0,1.59.91q1,0.49,2.56,1.08a39.64,39.64,0,0,1,5.25,2.32,12.55,12.55,0,0,1,3.27,2.47,7.64,7.64,0,0,1,1.68,2.94,13.05,13.05,0,0,1,.49,3.75,8.64,8.64,0,0,1-3.79,7.63q-3.79,2.58-10.72,2.59a30.82,30.82,0,0,1-7.55-.78,30.5,30.5,0,0,1-4.18-1.3l1.62-7.84a31.57,31.57,0,0,0,5.05,1.52A24.54,24.54,0,0,0,519.53,98.86Z" transform="translate(-10 -10)"/></svg>